<svg width="2597" height="935" viewBox="0 0 2597 935" fill="none" xmlns="http://www.w3.org/2000/svg">
<path d="M504.77 9.15528e-05C561.914 -4.47224e-07 618.558 0 675.904 0C675.904 2.18617 675.905 4.11522 675.904 6.04425C675.841 83.8658 675.719 161.687 675.728 239.509C675.743 371.49 675.843 503.47 675.9 635.451C675.904 645.437 675.934 655.425 675.791 665.41C675.728 669.821 673.628 673.101 670.035 675.901C575.29 749.738 480.618 823.67 385.909 897.554C371.723 908.62 357.421 919.538 343.16 930.507C341.587 931.717 339.928 932.815 337.996 934.188C334.329 931.456 330.685 928.849 327.155 926.096C220.219 842.699 113.307 759.27 6.31835 675.939C1.98251 672.562 -0.0840837 668.846 0.00261728 663.276C0.321495 642.785 0.387291 622.289 0.395897 601.794C0.452354 467.314 0.463036 332.833 0.501183 198.353C0.519402 134.196 0.565025 70.0389 0.598076 5.88187C0.599022 4.08574 0.598229 2.28961 0.598229 0.000167847C168.781 0.000167847 336.526 0.000167553 504.77 9.15528e-05ZM304.537 337.799C304.537 326.699 304.537 315.599 304.537 304.288C327.226 304.288 349.272 304.288 371.916 304.288C371.916 328.363 371.916 351.584 371.916 375.018C451.091 375.018 529.661 375.018 608.333 375.018C608.333 272.36 608.333 169.989 608.333 67.5361C428.028 67.5361 248.116 67.5361 67.7812 67.5361C67.7812 69.7816 67.7815 71.7487 67.7811 73.7159C67.7446 255.705 67.7078 437.694 67.6721 619.684C67.6685 638.265 67.6595 638.28 82.3435 649.705C154.931 706.182 227.524 762.653 300.118 819.12C312.729 828.929 325.357 838.715 338.025 848.549C339.459 847.501 340.684 846.654 341.856 845.741C429.802 777.261 517.755 708.791 605.596 640.177C607.297 638.849 608.527 635.82 608.532 633.581C608.707 564.086 608.702 494.59 608.725 425.094C608.725 423.496 608.725 421.897 608.725 420.18C529.473 420.18 450.923 420.18 372.13 420.18C372.13 421.767 372.134 422.917 372.13 424.067C372.021 452.897 371.931 481.727 371.75 510.556C371.74 512.228 371.558 514.613 370.496 515.452C360.833 523.09 350.924 530.415 341.168 537.937C338.919 539.67 337.182 539.523 335.018 537.793C326.169 530.722 317.286 523.689 308.271 516.832C305.453 514.689 304.553 512.279 304.558 508.787C304.63 452.125 304.568 395.462 304.537 337.799Z" fill="#DCAD26"/>
<path d="M2556.3 410.817C2506.77 494.97 2434.5 545.677 2338.08 560.323C2280.02 569.142 2222.53 565.822 2167.42 544.004C2086.51 511.967 2039 451.392 2020.04 367.331C2001.66 245.497 2035.59 142.752 2132.84 64.3673C2175.16 30.2521 2225.05 12.2659 2278.78 5.28662C2327.4 -1.02857 2375.68 0.903578 2422.76 15.3915C2492.42 36.8288 2544.38 79.5428 2575.12 146.331C2591 180.833 2596.35 217.604 2596.08 255.355C2595.68 310.347 2583.26 362.252 2556.3 410.817ZM2419.4 362.416C2439.57 331.747 2447.75 297.826 2447.03 261.421C2446.5 234.466 2440.16 209.198 2424.33 187.102C2392.34 142.436 2347.56 128.087 2294.92 134.858C2247.81 140.918 2212.5 166.348 2188.12 206.112C2159.92 252.114 2155.7 301.985 2172.35 352.737C2184.94 391.112 2212.14 416.393 2251.23 427.741C2275.83 434.882 2300.89 435.235 2325.88 429.658C2366.29 420.639 2395.97 396.435 2419.4 362.416Z" fill="#DCAD26"/>
<path d="M1678.63 187.425C1704.28 308.326 1729.85 428.81 1755.54 549.795C1753.86 549.922 1752.47 550.12 1751.07 550.12C1705.75 550.136 1660.42 550.093 1615.1 550.212C1611.49 550.221 1609.99 549.382 1609.21 545.586C1602.88 515.106 1596.29 484.682 1589.77 454.244C1589.43 452.642 1588.98 451.063 1588.49 449.141C1586.72 449.141 1585.08 449.141 1583.44 449.141C1524.45 449.141 1465.46 449.191 1406.47 449.029C1402.47 449.018 1400.67 450.389 1398.98 453.769C1383.52 484.565 1367.88 515.265 1352.34 546.019C1351.08 548.502 1350.01 550.242 1346.56 550.232C1296.74 550.087 1246.91 550.132 1197.09 550.124C1196.45 550.124 1195.82 550.024 1194.61 549.922C1195.39 548.177 1195.99 546.704 1196.69 545.286C1284.6 369.622 1372.51 193.963 1460.4 18.2934C1461.54 16.0278 1462.32 14.1591 1465.69 14.1674C1523.84 14.3123 1582 14.2833 1640.16 14.3C1640.48 14.3001 1640.8 14.4092 1641.85 14.5975C1654.05 71.8895 1666.31 129.449 1678.63 187.425ZM1541.7 193.854C1539.56 178.201 1537.42 162.548 1535.18 146.133C1514.22 209.964 1482.09 268.24 1455.77 329.281C1493.3 329.281 1530.49 329.281 1567.65 329.281C1567.71 328.598 1567.82 328.251 1567.76 327.937C1559.12 283.526 1550.47 239.118 1541.7 193.854Z" fill="#DCAD26"/>
<path d="M1122.13 135.895C1088.82 130.987 1056.32 131.714 1025.71 146.053C978.48 168.177 950.808 206.168 939.929 256.593C933.957 284.273 933.721 312.274 940.242 339.909C952.302 391.012 985.1 421.11 1036.13 431.131C1076.63 439.084 1116.42 433.714 1155.48 421.821C1169.14 417.661 1182.52 412.594 1196.49 407.784C1194.87 418.069 1193.29 428.35 1191.63 438.618C1186.1 472.806 1180.48 506.978 1175.12 541.192C1174.57 544.737 1173.23 546.248 1169.92 547.224C1142.15 555.404 1113.77 560.111 1084.96 562.139C1057.68 564.059 1030.41 564.378 1003.12 561.478C902.418 550.78 823.301 483.891 799.618 384.885C776.312 287.461 791.437 195.831 850.999 113.674C891.892 57.2666 948.298 24.0106 1015.74 9.66759C1097.04 -7.62435 1175.7 1.01951 1250.95 37.2583C1254.25 38.8488 1255.15 40.5346 1254.56 44.0866C1246.85 90.5699 1239.28 137.076 1231.66 183.574C1231.51 184.518 1231.2 185.436 1230.79 187.025C1199.04 160.029 1163.38 142.459 1122.13 135.895Z" fill="#DCAD26"/>
<path d="M1841.52 144.007C1843.01 134.569 1844.43 125.563 1845.85 116.507C1894.69 116.507 1943.11 116.507 1991.8 116.507C1969.01 260.541 1946.27 404.241 1923.5 548.159C1874.79 548.159 1826.38 548.159 1777.46 548.159C1779.41 535.739 1781.3 523.614 1783.22 511.493C1792.42 453.439 1801.62 395.386 1810.82 337.333C1819.97 279.609 1829.13 221.886 1838.29 164.164C1839.33 157.586 1840.4 151.013 1841.52 144.007Z" fill="#DCAD26"/>
<path d="M1958.77 12.5349C1975.38 12.5349 1991.5 12.5349 2008.24 12.5349C2003.69 41.358 1999.23 69.5814 1994.73 98.0866C1946.06 98.0866 1897.55 98.0866 1848.76 98.0866C1852.29 75.7792 1855.76 53.773 1859.25 31.7681C1860.03 26.8386 1861.15 21.9383 1861.54 16.9794C1861.83 13.2336 1863.35 12.4413 1866.86 12.457C1897.33 12.5934 1927.8 12.5351 1958.77 12.5349Z" fill="#DBAC26"/>
<path d="M2260.19 815.724C2218.08 858.067 2144.72 853.339 2111.34 806.244C2076.13 756.578 2096.58 674.177 2173.4 662.242C2197.33 658.524 2220.23 662.124 2241.25 674.674C2290.03 703.812 2299.25 771.881 2260.19 815.724ZM2260.5 725.275C2244.88 687.048 2204.42 668.915 2164.09 682.058C2126.59 694.278 2105.84 732.763 2116.04 772.261C2130.12 826.804 2191.52 839.682 2230.05 816.825C2260.29 798.882 2272.8 761.725 2260.5 725.275Z" fill="#FBFBFB"/>
<path d="M1120.77 679.054C1103.13 679.054 1085.99 679.054 1068.54 679.054C1068.54 700.45 1068.54 721.515 1068.54 743.043C1099.41 743.043 1130.32 743.043 1161.49 743.043C1161.49 748.58 1161.49 753.663 1161.49 759.232C1130.62 759.232 1099.72 759.232 1068.52 759.232C1068.52 781.784 1068.52 803.857 1068.52 826.363C1104.39 826.363 1140.31 826.363 1176.59 826.363C1176.59 832.026 1176.59 837.27 1176.59 842.853C1134.36 842.853 1091.97 842.853 1049.32 842.853C1049.32 782.844 1049.32 722.934 1049.32 662.703C1090.47 662.703 1131.53 662.703 1172.78 662.703C1172.78 668.005 1172.78 673.293 1172.78 679.054C1155.49 679.054 1138.38 679.054 1120.77 679.054Z" fill="#F9F9F9"/>
<path d="M1794.68 782.275C1793.54 787.749 1792.79 792.889 1791.28 797.798C1782.79 825.453 1761.52 841.964 1731.53 844.192C1716.62 845.3 1701.89 844.429 1687.85 838.565C1664.31 828.733 1652.95 809.837 1648.87 785.715C1647.88 779.831 1647.4 773.792 1647.38 767.821C1647.24 734.003 1647.31 700.185 1647.31 666.367C1647.31 665.227 1647.31 664.086 1647.31 662.666C1653.76 662.666 1659.82 662.666 1666.48 662.666C1666.48 664.51 1666.48 666.286 1666.48 668.061C1666.5 701.546 1666.26 735.034 1666.73 768.512C1666.85 777.044 1668.3 785.812 1670.72 794.005C1676.24 812.715 1689.35 823.819 1708.63 826.212C1718.07 827.385 1728.04 827.419 1737.38 825.766C1759.07 821.928 1772.52 806.06 1775.67 782.269C1776.54 775.69 1776.89 769 1776.92 762.358C1777.05 730.873 1776.98 699.387 1776.98 667.901C1776.98 666.263 1776.98 664.625 1776.98 662.692C1783.23 662.692 1789.14 662.692 1795.44 662.692C1795.52 664.066 1795.68 665.499 1795.68 666.932C1795.7 700.417 1795.74 733.902 1795.65 767.387C1795.64 772.203 1795.04 777.018 1794.68 782.275Z" fill="#FAFAFA"/>
<path d="M2471.22 684.676C2452.1 676.969 2432.85 674.521 2413.24 680.387C2407.66 682.056 2401.99 684.962 2397.59 688.731C2383.18 701.054 2384.8 722.991 2401.28 732.231C2410.27 737.271 2420.62 740.044 2430.55 743.204C2443.38 747.283 2456.65 750.042 2469.27 754.624C2483.63 759.834 2494.73 768.988 2498.3 784.991C2502.4 803.346 2495.31 821.662 2479.82 832.286C2469.67 839.249 2458.21 842.527 2446.16 843.793C2423.48 846.176 2401.57 843.364 2381.13 832.777C2375.3 829.758 2370.07 825.582 2364.43 821.847C2367.25 816.308 2369.64 811.605 2372.22 806.533C2383.28 816.405 2396.05 822.509 2410.2 825.73C2426.4 829.419 2442.6 829.728 2458.5 824.283C2474.87 818.674 2482.85 805.809 2479.84 790.599C2478.22 782.455 2473.33 776.282 2466.02 773.32C2454.52 768.661 2442.54 765.175 2430.7 761.392C2419.78 757.905 2408.52 755.364 2397.88 751.191C2379.63 744.031 2368.91 730.781 2369.2 710.407C2369.49 690.107 2379.45 675.486 2398.01 668.175C2429.52 655.768 2460.3 658.926 2489.73 675.54C2490.43 675.934 2491.02 676.516 2491.79 677.114C2489.66 682.121 2487.58 686.988 2485.5 691.865C2480.72 689.459 2476.14 687.154 2471.22 684.676Z" fill="#FBFBFB"/>
<path d="M1479.3 678.46C1454.5 681.68 1434.77 692.629 1422.25 714.145C1395.74 759.705 1421.12 823.436 1483.3 827.303C1505.67 828.694 1525.42 822.458 1541.24 806.412C1545.22 810.548 1549.09 814.572 1553.02 818.662C1527.07 849.935 1461.49 855.652 1422.93 821.279C1384.68 787.18 1382.76 724.047 1419.05 687.904C1454.69 652.393 1522.8 651.913 1553.64 686.955C1549.7 690.752 1545.76 694.55 1541.41 698.746C1524.65 681.929 1503.38 676.537 1479.3 678.46Z" fill="#FBFBFB"/>
<path d="M941.617 680.023C942.029 679.063 942.297 678.455 942.582 677.854C944.988 672.78 946.145 665.374 950.128 663.238C954.891 660.684 962.071 662.635 968.683 662.635C966.248 668.226 963.907 673.682 961.503 679.111C937.88 732.455 914.223 785.784 890.681 839.163C889.361 842.157 887.72 842.865 884.491 843.373C873.458 845.107 868.299 840.735 863.846 830.35C840.465 775.819 816.078 721.719 792.051 667.464C791.389 665.969 790.858 664.416 790.15 662.592C797.106 662.592 803.706 662.592 810.659 662.592C833.484 714.344 856.381 766.259 879.734 819.209C900.625 772.237 921.053 726.307 941.617 680.023Z" fill="#FBFBFB"/>
<path d="M1907.68 700.299C1907.68 687.5 1907.68 675.2 1907.68 662.645C1914.1 662.645 1920.17 662.645 1926.65 662.645C1926.65 717.175 1926.65 771.58 1926.65 826.406C1960.45 826.406 1993.86 826.406 2027.58 826.406C2027.58 832.062 2027.58 837.306 2027.58 842.869C1987.93 842.869 1948.18 842.869 1907.68 842.869C1907.68 795.604 1907.68 748.201 1907.68 700.299Z" fill="#FCFCFC"/>
<path d="M1295.61 764.299C1295.61 790.745 1295.61 816.69 1295.61 842.908C1289.12 842.908 1283.03 842.908 1276.73 842.908C1276.73 782.8 1276.73 722.723 1276.73 662.516C1282.94 662.516 1288.91 662.516 1295.61 662.516C1295.61 696.332 1295.61 730.065 1295.61 764.299Z" fill="#FBFBFB"/>
<path d="M1280.74 644.113C1284.5 635.068 1284.5 635.068 1294.18 635.068C1296.78 635.069 1299.38 635.068 1302.52 635.068C1300.23 640.717 1298.32 645.766 1296.09 650.673C1295.62 651.708 1294.02 652.816 1292.9 652.87C1287.96 653.108 1283.01 652.973 1277.18 652.973C1278.47 649.793 1279.55 647.136 1280.74 644.113Z" fill="#F5F5F5"/>
<path d="M382.079 613.61C405.796 595.218 429.182 576.982 452.736 558.965C455.773 556.642 456.736 554.208 456.702 550.603C456.563 535.471 456.643 520.337 456.643 504.964C479.355 504.964 501.414 504.964 523.766 504.964C523.766 510.025 523.77 514.674 523.766 519.323C523.746 543.654 523.654 567.984 523.785 592.313C523.803 595.677 522.741 597.794 520.135 599.819C473.699 635.907 427.318 672.064 380.944 708.232C369.909 716.838 358.961 725.556 347.942 734.182C344.932 736.538 341.806 738.745 338.533 741.169C337.186 740.272 335.927 739.549 334.795 738.664C276.118 692.808 217.489 646.891 158.714 601.162C154.082 597.558 152.315 593.936 152.349 587.932C152.715 523.777 152.711 459.619 152.799 395.462C152.903 318.806 152.998 242.151 153.096 165.495C153.101 161.195 153.097 156.896 153.097 152.324C276.836 152.324 399.931 152.324 523.424 152.324C523.424 198.119 523.424 243.845 523.424 289.976C501.451 289.976 479.409 289.976 456.779 289.976C456.779 266.546 456.779 243.166 456.779 219.503C377.613 219.503 299.031 219.503 219.684 219.503C219.684 221.247 219.684 222.997 219.684 224.746C219.684 332.899 219.711 441.053 219.588 549.206C219.583 553.711 221.057 556.549 224.551 559.245C261.351 587.641 298.073 616.139 334.714 644.739C337.469 646.889 339.327 646.961 341.987 644.865C355.201 634.449 368.518 624.164 382.079 613.61Z" fill="#DBAD26"/>
</svg>
